<?xml version="1.0" encoding="UTF-8" standalone="no"?>
<!-- Created with Inkscape (http://www.inkscape.org/) -->

<svg
   width="512"
   height="512"
   viewBox="0 0 512 512"
   version="1.1"
   id="svg5"
   inkscape:version="1.1.1 (3bf5ae0d25, 2021-09-20)"
   sodipodi:docname="icon-go.svg"
   xmlns:inkscape="http://www.inkscape.org/namespaces/inkscape"
   xmlns:sodipodi="http://sodipodi.sourceforge.net/DTD/sodipodi-0.dtd"
   xmlns="http://www.w3.org/2000/svg"
   xmlns:svg="http://www.w3.org/2000/svg">
  <sodipodi:namedview
     id="namedview7"
     pagecolor="#505050"
     bordercolor="#ffffff"
     borderopacity="1"
     inkscape:pageshadow="0"
     inkscape:pageopacity="0"
     inkscape:pagecheckerboard="1"
     inkscape:document-units="px"
     showgrid="false"
     inkscape:zoom="1.28"
     inkscape:cx="133.98438"
     inkscape:cy="288.67188"
     inkscape:window-width="1920"
     inkscape:window-height="1027"
     inkscape:window-x="-8"
     inkscape:window-y="-8"
     inkscape:window-maximized="1"
     inkscape:current-layer="layer1" />
  <defs
     id="defs2">
    <rect
       x="15.434669"
       y="815.9795"
       width="763.50163"
       height="100.83984"
       id="rect3830" />
    <clipPath
       clipPathUnits="userSpaceOnUse"
       id="clipPath1066">
      <path
         style="fill:none;stroke:#000000;stroke-width:0.264583px;stroke-linecap:butt;stroke-linejoin:miter;stroke-opacity:1"
         d="M 27.108753,58.615929 H 183.40473 V 147.88039 H 28.089013 V 57.83032 Z"
         id="path1068" />
    </clipPath>
  </defs>
  <g
     inkscape:label="Layer 1"
     inkscape:groupmode="layer"
     id="layer1">
    <path
       id="path1170"
       style="font-variation-settings:'wdth' 90, 'wght' 499;fill:#74cedd;fill-opacity:1;stroke:#000000;stroke-width:1.04283;stroke-opacity:0"
       d="M 509.87656,255.61273 A 254.37748,252.16135 0 0 1 255.49898,507.77407 254.37748,252.16135 0 0 1 1.1214959,255.61273 254.37748,252.16135 0 0 1 255.49898,3.451367 254.37748,252.16135 0 0 1 509.87656,255.61273 Z" />
    <path
       style="fill:#333333;stroke:#000000;stroke-width:0.816265;stroke-opacity:0"
       d="m 17.175258,180.81405 c 4.860302,-11.37726 12.532891,-23.48307 21.398937,-28.50323 18.437541,-7.06512 42.092387,11.2739 52.332653,18.39095 19.057622,13.30794 38.960622,22.17054 51.804192,23.06791 16.43566,-0.17999 33.12059,-10.43893 47.20265,-18.85484 95.88059,-59.69795 98.58821,-62.22778 184.09181,-3.58672 23.36711,15.89818 36.37402,22.6773 43.84532,22.85202 3.14509,0.0735 4.39654,-0.42336 8.09035,-3.2124 21.44641,-16.19303 48.32257,-35.14243 58.32769,-31.95993 20.94159,6.84867 15.18891,43.60315 11.69725,57.48694 -2.75123,10.85251 -6.36542,18.60304 -13.5404,31.36068 -11.53123,-9.66963 -56.49457,-20.19705 -73.69721,4.68813 -39.83368,-25.19701 -73.70556,-33.82625 -105.85391,-36.6517 -139.9454,-12.29947 -184.33521,42.11893 -214.622428,45.13349 -24.156599,-15.4013 -63.991523,-0.75317 -78.733425,18.8155 -2.952513,-32.85107 -3.299353,-71.42726 7.656521,-99.0268 z"
       id="path5349"
       sodipodi:nodetypes="cccccccsccccsccc"
       inkscape:export-filename="C:\Users\itama\Pictures\logo\columbus\logo.png"
       inkscape:export-xdpi="48.380001"
       inkscape:export-ydpi="48.380001" />
    <path
       style="fill:#333333;stroke:#ff0000;stroke-width:0.337809;stroke-opacity:0"
       d="m 147.47143,188.68199 c -7.07272,-0.9784 -17.84163,-5.06106 -22.0964,-8.37701 -1.81017,-1.41077 -1.85057,-2.0841 -0.2318,-3.86348 0.77037,-0.84681 2.43502,-2.67991 3.69919,-4.07356 3.10319,-3.42098 12.47634,-13.10047 14.94812,-15.43662 7.28966,-6.88971 13.7959,-12.45781 20.80527,-17.80534 2.98305,-2.27581 11.87219,-8.53477 13.82556,-9.73477 11.32498,-6.95717 18.216,-10.61295 26.78631,-14.21045 15.56005,-6.53153 28.59466,-9.82782 44.93939,-11.36454 4.47685,-0.42092 21.13292,-0.45307 23.80123,-0.0459 0.54924,0.0838 2.04722,0.25486 3.32883,0.38012 2.17093,0.2122 4.80231,0.55721 7.98922,1.04751 6.94204,1.06802 18.96416,4.13196 26.2795,6.69753 4.79199,1.68059 12.61485,4.77525 15.16458,5.99896 1.00697,0.48328 2.96934,1.38193 4.36081,1.99697 1.39149,0.61506 2.81457,1.28169 3.1624,1.48142 0.34784,0.19973 1.85807,0.97387 3.35607,1.72029 3.17353,1.58137 6.95298,3.68508 11.25754,6.26617 0.54923,0.32937 1.67272,0.98878 2.49663,1.46542 0.82388,0.47662 1.90723,1.13161 2.40749,1.45551 0.5002,0.32392 2.29778,1.48095 3.9946,2.57117 11.8489,7.6132 25.74709,18.79184 37.86553,30.45616 6.55842,6.3126 12.15828,12.25604 11.70165,12.41955 -0.25022,0.0897 -0.54964,0.0284 -0.66577,-0.13497 -0.116,-0.16406 -0.45666,-0.45177 -0.75673,-0.6397 -0.29991,-0.18778 -3.8952,-2.70778 -7.98922,-5.59964 -46.97986,-33.18452 -80.76932,-52.66166 -95.49153,-55.04385 -2.74376,-0.44397 -11.18336,-0.44684 -15.31267,-0.006 -20.6116,2.20435 -39.67628,10.63265 -73.401,32.44972 -5.37773,3.47893 -8.57214,5.594 -25.63209,16.97122 -15.391,10.26423 -32.92283,21.57666 -34.61996,22.3386 -1.72253,0.77336 -3.51422,0.95901 -5.97275,0.61891 z"
       id="path8605"
       inkscape:export-filename="C:\Users\itama\Pictures\logo\columbus\logo.png"
       inkscape:export-xdpi="48.380001"
       inkscape:export-ydpi="48.380001" />
    <path
       id="path7727"
       style="font-variation-settings:'wdth' 90, 'wght' 499;fill:#ffffff;stroke:#000000;stroke-width:1.06056;stroke-opacity:0"
       d="m 233.70271,298.3757 a 54.384579,52.451088 0 0 1 -54.38458,52.45109 54.384579,52.451088 0 0 1 -54.38458,-52.45109 54.384579,52.451088 0 0 1 54.38458,-52.45109 54.384579,52.451088 0 0 1 54.38458,52.45109 z" />
    <path
       id="ellipse7809"
       style="font-variation-settings:'wdth' 90, 'wght' 499;fill:#ffffff;stroke:#000000;stroke-width:1.06056;stroke-opacity:0"
       d="m 395.56387,296.16599 a 54.384579,52.451088 0 0 1 -54.38458,52.45108 54.384579,52.451088 0 0 1 -54.38458,-52.45108 54.384579,52.451088 0 0 1 54.38458,-52.45109 54.384579,52.451088 0 0 1 54.38458,52.45109 z" />
    <path
       id="ellipse7811"
       style="font-variation-settings:'wdth' 90, 'wght' 499;stroke:#000000;stroke-width:0.297539;stroke-opacity:0"
       d="m 221.2303,303.7619 a 15.257563,14.715122 0 0 1 -15.25757,14.71512 15.257563,14.715122 0 0 1 -15.25756,-14.71512 15.257563,14.715122 0 0 1 15.25756,-14.71512 15.257563,14.715122 0 0 1 15.25757,14.71512 z" />
    <path
       id="ellipse7849"
       style="font-variation-settings:'wdth' 90, 'wght' 499;fill:#ffffff;stroke:#000000;stroke-width:0.0894954;stroke-opacity:0"
       d="m 204.89792,303.7619 a 4.5892544,4.4260964 0 0 1 -4.58925,4.4261 4.5892544,4.4260964 0 0 1 -4.58925,-4.4261 4.5892544,4.4260964 0 0 1 4.58925,-4.42609 4.5892544,4.4260964 0 0 1 4.58925,4.42609 z" />
    <path
       id="ellipse7869"
       style="font-variation-settings:'wdth' 90, 'wght' 499;stroke:#000000;stroke-width:0.297539;stroke-opacity:0"
       d="m 385.8536,303.7619 a 15.257563,14.715122 0 0 1 -15.25756,14.71512 15.257563,14.715122 0 0 1 -15.25756,-14.71512 15.257563,14.715122 0 0 1 15.25756,-14.71512 15.257563,14.715122 0 0 1 15.25756,14.71512 z" />
    <path
       id="ellipse7871"
       style="font-variation-settings:'wdth' 90, 'wght' 499;fill:#ffffff;stroke:#000000;stroke-width:0.0894954;stroke-opacity:0"
       d="m 369.52123,303.7619 a 4.5892544,4.4260964 0 0 1 -4.58925,4.4261 4.5892544,4.4260964 0 0 1 -4.58926,-4.4261 4.5892544,4.4260964 0 0 1 4.58926,-4.42609 4.5892544,4.4260964 0 0 1 4.58925,4.42609 z" />
    <path
       id="ellipse11140"
       style="font-variation-settings:'wdth' 90, 'wght' 499;fill:#ffffff;stroke:#000000;stroke-width:1.19571"
       d="m 271.5295,402.3996 c 0,11.69262 1.98808,16.75196 -6.12203,16.75196 -8.11012,0 -11.0939,-6.02607 -11.0939,-17.7187 0,-11.69263 1.87891,-22.13813 9.98903,-22.13812 8.11012,0 7.2269,11.41224 7.2269,23.10486 z"
       sodipodi:nodetypes="sssss" />
    <path
       id="path11995"
       style="font-variation-settings:'wdth' 90, 'wght' 499;fill:#ffffff;stroke:#000000;stroke-width:1.19571"
       d="m 287.13557,401.98528 c 0,11.69262 -2.01702,17.30439 -10.12713,17.30439 -8.11012,0 -7.36502,-5.74986 -7.36502,-17.44249 0,-11.69263 -1.43564,-22.27624 6.67448,-22.27623 8.11012,0 10.81767,10.72171 10.81767,22.41433 z"
       sodipodi:nodetypes="sssss" />
    <path
       id="ellipse7875"
       style="font-variation-settings:'wdth' 90, 'wght' 499;fill:#deaa87;stroke:#000000;stroke-width:0.605794;stroke-opacity:0"
       d="m 308.78654,386.30268 c 1.35953,26.51602 -18.56048,0.92358 -35.64626,-0.0331 -21.9727,-1.82256 -48.83327,25.86162 -42.43832,-0.43859 3.53129,-12.18359 23.622,-16.85664 41.13264,-16.85664 17.51063,0 36.95194,7.39603 36.95194,17.32833 z"
       sodipodi:nodetypes="cccscc" />
    <path
       id="ellipse7873"
       style="font-variation-settings:'wdth' 90, 'wght' 499;stroke:#000000;stroke-width:0.380389;stroke-opacity:0"
       d="m 290.1824,367.12617 a 20.326344,11.804452 0 0 1 -20.32634,11.80445 20.326344,11.804452 0 0 1 -20.32634,-11.80445 20.326344,11.804452 0 0 1 20.32634,-11.80446 20.326344,11.804452 0 0 1 20.32634,11.80446 z" />
    <path
       id="path13761"
       style="font-variation-settings:'wdth' 90, 'wght' 499;stroke:#000000;stroke-width:0.297539;stroke-opacity:0"
       d="m 467.56397,274.56451 c -4.2396,6.93346 -5.69603,-3.40478 -12.88508,-7.80069 -7.18903,-4.39588 -17.38837,-1.18477 -13.14875,-8.11825 4.23961,-6.93346 13.50437,-8.99054 20.6934,-4.59467 7.18904,4.3959 9.58005,13.58016 5.34043,20.51361 z"
       sodipodi:nodetypes="sssss" />
    <path
       id="path13984"
       style="font-variation-settings:'wdth' 90, 'wght' 499;stroke:#000000;stroke-width:0.30157;stroke-opacity:0"
       d="m 40.44373,293.19078 c 3.481521,7.46013 6.203031,-2.62069 14.043808,-6.02639 7.840747,-3.40568 17.831659,1.15345 14.350122,-6.3067 -3.481534,-7.46013 -12.660072,-10.74688 -20.500828,-7.34121 -7.840764,3.4057 -11.374639,12.21418 -7.893102,19.6743 z"
       sodipodi:nodetypes="sssss" />
  </g>
</svg>
